<svg width="20" height="21" viewBox="0 0 20 21" fill="none" xmlns="http://www.w3.org/2000/svg">
<path d="M9.99992 1.53906C8.18693 1.53906 6.41465 2.07668 4.9072 3.08392C3.39974 4.09117 2.22483 5.52281 1.53103 7.1978C0.837224 8.87279 0.655693 10.7159 1.00939 12.4941C1.36309 14.2722 2.23613 15.9056 3.51811 17.1875C4.80009 18.4695 6.43344 19.3426 8.21159 19.6963C9.98975 20.05 11.8329 19.8684 13.5079 19.1746C15.1828 18.4808 16.6145 17.3059 17.6217 15.7985C18.629 14.291 19.1666 12.5187 19.1666 10.7057C19.1666 8.27458 18.2008 5.943 16.4817 4.22392C14.7627 2.50483 12.4311 1.53906 9.99992 1.53906ZM14.1666 11.5391H10.8333V14.8724C10.8333 15.0934 10.7455 15.3054 10.5892 15.4617C10.4329 15.6179 10.2209 15.7057 9.99992 15.7057C9.77891 15.7057 9.56695 15.6179 9.41067 15.4617C9.25439 15.3054 9.16659 15.0934 9.16659 14.8724V11.5391H5.83326C5.61224 11.5391 5.40028 11.4513 5.244 11.295C5.08772 11.1387 4.99992 10.9267 4.99992 10.7057C4.99992 10.4847 5.08772 10.2728 5.244 10.1165C5.40028 9.96019 5.61224 9.8724 5.83326 9.8724H9.16659V6.53906C9.16659 6.31805 9.25439 6.10609 9.41067 5.94981C9.56695 5.79353 9.77891 5.70573 9.99992 5.70573C10.2209 5.70573 10.4329 5.79353 10.5892 5.94981C10.7455 6.10609 10.8333 6.31805 10.8333 6.53906V9.8724H14.1666C14.3876 9.8724 14.5996 9.96019 14.7558 10.1165C14.9121 10.2728 14.9999 10.4847 14.9999 10.7057C14.9999 10.9267 14.9121 11.1387 14.7558 11.295C14.5996 11.4513 14.3876 11.5391 14.1666 11.5391Z" fill="#748098"/>
</svg>
