<svg width="40" height="40" viewBox="0 0 40 40" fill="none" xmlns="http://www.w3.org/2000/svg">
<path d="M32.8125 22.1875C28.8492 22.1875 25.625 25.4117 25.625 29.375C25.625 33.3383 28.8492 36.5625 32.8125 36.5625C36.7758 36.5625 40 33.3383 40 29.375C40 25.4117 36.7758 22.1875 32.8125 22.1875ZM35.625 30H33.4375V32.1875C33.4375 32.5328 33.1578 32.8125 32.8125 32.8125C32.4672 32.8125 32.1875 32.5328 32.1875 32.1875V30H30C29.6547 30 29.375 29.7203 29.375 29.375C29.375 29.0297 29.6547 28.75 30 28.75H32.1875V26.5625C32.1875 26.2172 32.4672 25.9375 32.8125 25.9375C33.1578 25.9375 33.4375 26.2172 33.4375 26.5625V28.75H35.625C35.9703 28.75 36.25 29.0297 36.25 29.375C36.25 29.7203 35.9703 30 35.625 30Z" fill="#8E8E93"/>
<path d="M30.882 21.1602C31.3406 21.0523 31.5195 20.4945 31.2086 20.1406L25.0922 13.1641C24.6172 12.6227 23.932 12.3117 23.2125 12.3117C23.2117 12.3117 23.2117 12.3117 23.2109 12.3117C22.4906 12.3125 21.8047 12.6234 21.3305 13.1664L13.0273 22.6633L9.17734 18.2719C8.70234 17.7305 8.01719 17.4195 7.29766 17.4195C7.29688 17.4195 7.29688 17.4195 7.29609 17.4195C6.575 17.4203 5.88984 17.7313 5.41563 18.2742L1.25 23.0383V7.96875C1.25 6.15625 2.71875 4.6875 4.53125 4.6875H30.4688C32.2812 4.6875 33.75 6.15625 33.75 7.96875V20.4539C33.75 20.7539 33.9656 21.0109 34.2617 21.0625L34.2742 21.0648C34.6531 21.1313 35 20.8391 35 20.4547V7.96875C35 5.46641 32.9711 3.4375 30.4688 3.4375H4.53125C2.02891 3.4375 0 5.46641 0 7.96875V25.4688C0 27.9711 2.02891 30 4.53125 30H23.7562C24.0969 30 24.375 29.7219 24.375 29.3812V29.375C24.375 25.3867 27.157 22.0352 30.882 21.1602Z" fill="#8E8E93"/>
<path d="M13.3349 13.3603C15.014 13.1073 16.1702 11.541 15.9172 9.86183C15.6642 8.18267 14.0979 7.02651 12.4188 7.27949C10.7396 7.53247 9.58344 9.09878 9.83642 10.778C10.0894 12.4571 11.6557 13.6133 13.3349 13.3603Z" fill="#8E8E93"/>
</svg>
