<svg width="21" height="20" viewBox="0 0 21 20" fill="none" xmlns="http://www.w3.org/2000/svg">
<path d="M17.9118 1.17627H16.1471V2.94098C16.1471 3.29392 15.853 3.52921 15.5588 3.52921C15.2647 3.52921 14.9706 3.29392 14.9706 2.94098V1.17627H5.55885V2.94098C5.55885 3.29392 5.26473 3.52921 4.97061 3.52921C4.67649 3.52921 4.38237 3.29392 4.38237 2.94098V1.17627H2.61767C1.73532 1.17627 1.08826 1.94098 1.08826 2.94098V5.05862H19.9118V2.94098C19.9118 1.94098 18.853 1.17627 17.9118 1.17627ZM1.08826 6.29392V17.0586C1.08826 18.1174 1.73532 18.8233 2.67649 18.8233H17.9706C18.9118 18.8233 19.9706 18.0586 19.9706 17.0586V6.29392H1.08826ZM6.32355 16.1763H4.91179C4.67649 16.1763 4.4412 15.9998 4.4412 15.7057V14.2351C4.4412 13.9998 4.61767 13.7645 4.91179 13.7645H6.38237C6.61767 13.7645 6.85296 13.941 6.85296 14.2351V15.7057C6.79414 15.9998 6.61767 16.1763 6.32355 16.1763ZM6.32355 10.8822H4.91179C4.67649 10.8822 4.4412 10.7057 4.4412 10.4116V8.94097C4.4412 8.70568 4.61767 8.47039 4.91179 8.47039H6.38237C6.61767 8.47039 6.85296 8.64686 6.85296 8.94097V10.4116C6.79414 10.7057 6.61767 10.8822 6.32355 10.8822ZM11.0294 16.1763H9.55885C9.32355 16.1763 9.08826 15.9998 9.08826 15.7057V14.2351C9.08826 13.9998 9.26473 13.7645 9.55885 13.7645H11.0294C11.2647 13.7645 11.5 13.941 11.5 14.2351V15.7057C11.5 15.9998 11.3236 16.1763 11.0294 16.1763ZM11.0294 10.8822H9.55885C9.32355 10.8822 9.08826 10.7057 9.08826 10.4116V8.94097C9.08826 8.70568 9.26473 8.47039 9.55885 8.47039H11.0294C11.2647 8.47039 11.5 8.64686 11.5 8.94097V10.4116C11.5 10.7057 11.3236 10.8822 11.0294 10.8822ZM15.7353 16.1763H14.2647C14.0294 16.1763 13.7941 15.9998 13.7941 15.7057V14.2351C13.7941 13.9998 13.9706 13.7645 14.2647 13.7645H15.7353C15.9706 13.7645 16.2059 13.941 16.2059 14.2351V15.7057C16.2059 15.9998 16.0294 16.1763 15.7353 16.1763ZM15.7353 10.8822H14.2647C14.0294 10.8822 13.7941 10.7057 13.7941 10.4116V8.94097C13.7941 8.70568 13.9706 8.47039 14.2647 8.47039H15.7353C15.9706 8.47039 16.2059 8.64686 16.2059 8.94097V10.4116C16.2059 10.7057 16.0294 10.8822 15.7353 10.8822Z" fill="#7D81A3"/>
</svg>
