<svg width="20" height="20" viewBox="0 0 20 20" fill="none" xmlns="http://www.w3.org/2000/svg">
<path d="M16.7835 7.2915L16.1418 16.8164C16.1031 17.3962 15.8458 17.9397 15.422 18.3373C14.9982 18.7348 14.4393 18.9567 13.8582 18.9582H6.14177C5.5607 18.9567 5.00184 18.7348 4.57801 18.3372C4.15418 17.9397 3.89694 17.3962 3.85824 16.8164L3.21655 7.2915H16.7835Z" fill="#FF6464"/>
<path d="M12.5936 4.79151H7.40641C7.17535 4.79144 6.94761 4.7365 6.74193 4.63121C6.53625 4.52593 6.35851 4.3733 6.22335 4.18589C6.08819 3.99849 5.99947 3.78166 5.96448 3.55326C5.9295 3.32487 5.94926 3.09143 6.02213 2.87216L6.30129 2.03799C6.39764 1.74757 6.58312 1.49493 6.83136 1.31602C7.07959 1.13711 7.37793 1.04105 7.68391 1.04151H12.3161C12.6223 1.04115 12.9208 1.13734 13.1691 1.31639C13.4175 1.49543 13.6031 1.74823 13.6995 2.03882L13.977 2.87132C14.0502 3.09058 14.0702 3.32408 14.0354 3.55258C14.0006 3.78109 13.912 3.99805 13.7769 4.18559C13.6418 4.37312 13.464 4.52586 13.2583 4.63121C13.0525 4.73655 12.8247 4.7915 12.5936 4.79151ZM7.68391 2.29151C7.6403 2.29136 7.59776 2.30502 7.56238 2.33053C7.527 2.35603 7.50061 2.39209 7.48698 2.43351L7.20781 3.26768C7.1976 3.29905 7.19495 3.33239 7.20009 3.36498C7.20522 3.39756 7.218 3.42847 7.23737 3.45518C7.25673 3.48188 7.28215 3.50363 7.31153 3.51863C7.34091 3.53363 7.37342 3.54147 7.40641 3.54151H12.5936C12.6266 3.54152 12.6592 3.53367 12.6887 3.51861C12.7181 3.50354 12.7435 3.48169 12.7628 3.45486C12.7822 3.42802 12.7948 3.39698 12.7998 3.36429C12.8047 3.3316 12.8018 3.2982 12.7913 3.26685L12.5138 2.43435C12.5001 2.39275 12.4736 2.35655 12.4381 2.3309C12.4026 2.30525 12.3599 2.29146 12.3161 2.29151H7.68391Z" fill="#FF6464"/>
<path d="M8.33334 13.9583C8.1676 13.9583 8.00865 13.8924 7.89145 13.7752C7.77425 13.658 7.70839 13.4991 7.70834 13.3333V10C7.70834 9.83424 7.77419 9.67527 7.8914 9.55806C8.00861 9.44085 8.16758 9.375 8.33334 9.375C8.4991 9.375 8.65807 9.44085 8.77528 9.55806C8.8925 9.67527 8.95834 9.83424 8.95834 10V13.3333C8.9583 13.4991 8.89244 13.658 8.77524 13.7752C8.65804 13.8924 8.49909 13.9583 8.33334 13.9583Z" fill="#EDEBEA"/>
<path d="M11.6667 13.9583C11.5009 13.9583 11.342 13.8924 11.2248 13.7752C11.1076 13.658 11.0417 13.4991 11.0417 13.3333V10C11.0417 9.83424 11.1075 9.67527 11.2247 9.55806C11.3419 9.44085 11.5009 9.375 11.6667 9.375C11.8324 9.375 11.9914 9.44085 12.1086 9.55806C12.2258 9.67527 12.2917 9.83424 12.2917 10V13.3333C12.2916 13.4991 12.2258 13.658 12.1085 13.7752C11.9913 13.8924 11.8324 13.9583 11.6667 13.9583Z" fill="#EDEBEA"/>
<path d="M16.6667 3.5415H3.33333C2.94656 3.5415 2.57563 3.69515 2.30214 3.96864C2.02865 4.24213 1.875 4.61306 1.875 4.99984C1.875 5.38661 2.02865 5.75754 2.30214 6.03103C2.57563 6.30453 2.94656 6.45817 3.33333 6.45817H16.6667C17.0534 6.45817 17.4244 6.30453 17.6979 6.03103C17.9714 5.75754 18.125 5.38661 18.125 4.99984C18.125 4.61306 17.9714 4.24213 17.6979 3.96864C17.4244 3.69515 17.0534 3.5415 16.6667 3.5415Z" fill="#FF6464"/>
</svg>
