<svg width="20" height="20" viewBox="0 0 20 20" fill="none" xmlns="http://www.w3.org/2000/svg">
<path d="M16.6666 7.1666L9.68329 14.1499C9.44163 14.3916 9.12496 14.5416 8.78329 14.5749L6.34163 14.7999C6.34163 14.7999 6.27496 14.7999 6.24996 14.7999C5.97496 14.7999 5.70829 14.6916 5.51663 14.4916C5.29996 14.2749 5.19163 13.9666 5.21663 13.6583L5.44163 11.2166C5.47496 10.8749 5.62496 10.5583 5.86663 10.3166L12.8333 3.33327L16.6666 7.1666ZM18.2833 2.30827L17.6916 1.7166C16.8 0.824935 15.3416 0.824935 14.45 1.7166L13.7166 2.44994L17.55 6.28327L18.2833 5.54994C18.7166 5.1166 18.9583 4.5416 18.9583 3.93327C18.9583 3.32493 18.7166 2.7416 18.2833 2.3166V2.30827ZM17.2916 15.8416V10.9999C17.2916 10.6583 17.0083 10.3749 16.6666 10.3749C16.325 10.3749 16.0416 10.6583 16.0416 10.9999V15.8416C16.0416 16.8749 15.2 17.7166 14.1666 17.7166H4.16663C3.13329 17.7166 2.29163 16.8749 2.29163 15.8416V5.83327C2.29163 4.79994 3.13329 3.95827 4.16663 3.95827H9.00829C9.34996 3.95827 9.63329 3.67494 9.63329 3.33327C9.63329 2.9916 9.34996 2.70827 9.00829 2.70827H4.16663C2.44163 2.70827 1.04163 4.10827 1.04163 5.83327V15.8333C1.04163 17.5583 2.44163 18.9583 4.16663 18.9583H14.1666C15.8916 18.9583 17.2916 17.5583 17.2916 15.8333V15.8416Z" fill="#989894"/>
</svg>
