<svg width="40" height="40" viewBox="0 0 40 40" fill="none" xmlns="http://www.w3.org/2000/svg">
<path d="M10 11.875V9.375C10.6875 9.375 11.25 9.9375 11.25 10.625H12.5C12.5 9.25 11.375 8.125 10 8.125V6.875H8.75V8.125C7.375 8.125 6.25 9.25 6.25 10.625C6.25 12 7.375 13.125 8.75 13.125V15.625C8.0625 15.625 7.5 15.0625 7.5 14.375H6.25C6.25 15.75 7.375 16.875 8.75 16.875V18.125H10V16.875C11.375 16.875 12.5 15.75 12.5 14.375C12.5 13 11.375 11.875 10 11.875ZM7.5 10.625C7.5 9.9375 8.0625 9.375 8.75 9.375V11.875C8.0625 11.875 7.5 11.3125 7.5 10.625ZM10 15.625V13.125C10.6875 13.125 11.25 13.6875 11.25 14.375C11.25 15.0625 10.6875 15.625 10 15.625Z" fill="black"/>
<path d="M9.375 20.625C4.875 20.625 1.25 17 1.25 12.5C1.25 8 4.875 4.375 9.375 4.375C13.875 4.375 17.5 8 17.5 12.5C17.5 17 13.875 20.625 9.375 20.625ZM9.375 5.625C5.5625 5.625 2.5 8.6875 2.5 12.5C2.5 16.3125 5.5625 19.375 9.375 19.375C13.1875 19.375 16.25 16.3125 16.25 12.5C16.25 8.6875 13.1875 5.625 9.375 5.625Z" fill="black"/>
<path d="M37.8125 9.93769C36.8125 9.12519 35.3125 9.25019 34.375 10.1877L16.375 28.1877L13.1875 34.0627C13.0625 34.3127 13.125 34.6252 13.3125 34.8127C13.5 35.0002 13.8125 35.0627 14.0625 34.9377L19.875 31.8127L38.0625 13.6252C39.0625 12.5627 39 10.8752 37.8125 9.93769ZM15.25 32.8752L16.9375 29.6877L18.375 31.1252L15.25 32.8752ZM19.4375 30.4377L17.6875 28.6877L31.8125 14.5627L33.5625 16.3127L19.4375 30.4377ZM34.5 15.3752L32.75 13.6252L35.375 11.0002C35.875 10.5002 36.625 10.5002 37.125 11.0002C37.625 11.5002 37.625 12.2502 37.125 12.7502L34.5 15.3752Z" fill="black"/>
<path d="M31.25 13.75H16.875V15H30L31.25 13.75Z" fill="black"/>
<path d="M14.6875 32.5H5V18.75L3.75 17.5V33.75H13.9375L14.6875 32.5Z" fill="black"/>
<path d="M36.875 13.75L35.625 15H37.5V32.5H16.875L15.625 33.75H38.75V13.75H36.875Z" fill="black"/>
<path d="M7.5 22.5H22.5V23.75H7.5V22.5Z" fill="black"/>
<path d="M7.5 26.25H18.75V27.5H7.5V26.25Z" fill="black"/>
<path d="M25 30H35V31.25H25V30Z" fill="black"/>
<path d="M27.5 22.5H35V23.75H27.5V22.5Z" fill="black"/>
</svg>
