<svg width="30" height="30" viewBox="0 0 30 30" fill="none" xmlns="http://www.w3.org/2000/svg">
<g clip-path="url(#clip0_123_4690)">
<path d="M23.3353 15.6894L26.8068 14.2133C27.1286 14.076 27.2782 13.7038 27.1408 13.382C27.0862 13.2542 26.9911 13.1479 26.8702 13.0794L25.1471 12.0911L26.8385 11.3753C27.1603 11.238 27.3098 10.8657 27.1724 10.544C27.1179 10.4162 27.0228 10.3098 26.9019 10.2413L25.1471 9.25307L26.8385 8.53723C27.1603 8.39992 27.3098 8.02766 27.1724 7.70592C27.1179 7.57812 27.0228 7.47177 26.9019 7.40327L25.1471 6.41502L26.8385 5.69917C27.1603 5.56186 27.3098 5.1896 27.1724 4.86787C27.1179 4.74006 27.0228 4.63371 26.9019 4.56522L18.9008 0.0800751C18.7316 -0.0141572 18.5286 -0.0258768 18.3497 0.0484004L12.4265 2.47468C12.3548 2.47753 12.2841 2.4925 12.2175 2.51903L8.60021 4.03942L1.16932 7.08652C0.843305 7.21362 0.682081 7.58089 0.809175 7.90682C0.860251 8.03787 0.953533 8.14826 1.07429 8.22048L2.8164 9.24674L1.16932 9.93091C0.84473 10.0615 0.687386 10.4304 0.817965 10.755C0.868645 10.8811 0.958522 10.9874 1.07429 11.0585L2.8164 12.0848L1.15665 12.769C0.832298 12.9002 0.675825 13.2695 0.807037 13.5939C0.859538 13.7236 0.953533 13.8322 1.07429 13.9029L2.8164 14.9292L1.16932 15.6324C0.848927 15.7728 0.702986 16.1465 0.843463 16.4669C0.892401 16.5786 0.972538 16.6737 1.07421 16.741L3.01271 17.8813V26.7502C3.01271 28.8597 6.6553 30 10.0825 30C12.3948 30 14.7957 29.4806 16.1197 28.4923C17.3867 29.4172 19.6293 30 22.1696 30C25.5968 30 29.2394 28.8597 29.2394 26.7502V18.8949C29.2458 17.0197 26.3761 15.9174 23.3353 15.6894ZM20.4529 15.5437V14.0803L23.6584 12.7183L25.1471 13.5545L20.4529 15.5437ZM20.4529 12.7056V11.2422L23.6584 9.88023L25.1471 10.7164L20.4529 12.7056ZM20.4529 9.86756V8.39786L23.6584 7.03584L25.1471 7.87839L20.4529 9.86756ZM18.5524 1.33439L25.1471 5.034L19.8574 7.27024L13.8519 3.26022L18.5524 1.33439ZM8.73324 5.35708L14.8085 9.41145L9.46809 11.6794L2.82907 7.77703L8.73324 5.35708ZM4.20375 10.0513L9.10067 12.9337C9.27393 13.0362 9.48551 13.0503 9.67081 12.9717L15.5053 10.4947V11.9581L12.5279 13.2251C10.8098 12.9495 9.05743 12.9688 7.34589 13.2821L2.82907 10.6151L4.20375 10.0513ZM15.499 13.3328V14.1373C15.1984 13.9804 14.8872 13.845 14.5677 13.7319L15.499 13.3328ZM3.02546 16.2659V16.3989L2.82907 16.2849L3.03179 16.2025L3.02546 16.2659ZM2.82907 13.4468L4.20375 12.883L5.62278 13.7319C5.17918 13.8975 4.75442 14.1098 4.35579 14.3654L2.82907 13.4468ZM15.8917 26.7502C15.8917 27.5611 13.6302 28.733 10.0889 28.733C6.54768 28.733 4.28611 27.5611 4.28611 26.7502V26.0407C5.64812 26.9212 7.9097 27.3837 10.0889 27.3837C12.2681 27.3837 14.5234 26.9212 15.8917 26.0407V26.7502ZM15.8917 24.1339C15.8917 24.9447 13.6302 26.1167 10.0889 26.1167C6.54768 26.1167 4.28611 24.9447 4.28611 24.1339V23.4243C5.64812 24.3049 7.9097 24.7674 10.0889 24.7674C12.2681 24.7674 14.5234 24.3049 15.8917 23.4243V24.1339ZM15.8917 21.5175C15.8917 22.3284 13.6302 23.5004 10.0889 23.5004C6.54768 23.5004 4.28611 22.3284 4.28611 21.5175V20.808C5.64812 21.6886 7.9097 22.151 10.0889 22.151C12.2681 22.151 14.5234 21.6886 15.8917 20.808V21.5175ZM15.8917 18.9012C15.8917 19.7121 13.6302 20.884 10.0889 20.884C6.54768 20.884 4.28611 19.7057 4.28611 18.9012V18.1663C5.64812 19.0469 7.9097 19.5093 10.0889 19.5093C12.2681 19.5093 14.5234 19.0469 15.8917 18.1663V18.9012ZM10.0953 18.2614L10.0889 18.2677C6.54768 18.2677 4.28611 17.0894 4.28611 16.2849C4.28611 15.4803 6.54768 14.302 10.0889 14.302C13.6302 14.302 15.8981 15.4677 15.8981 16.2659C15.8981 17.0641 13.6365 18.2614 10.0953 18.2614ZM16.4872 9.01235L10.1523 4.7806L12.4392 3.84303L19.1732 8.33451V15.9364C18.4827 16.0736 17.8093 16.2861 17.1651 16.5699V16.2659C17.1601 15.8592 17.0221 15.4654 16.7723 15.1446V9.53815C16.7712 9.32624 16.6642 9.12891 16.4872 9.01235ZM27.9788 26.7502C27.9788 27.5611 25.7172 28.733 22.176 28.733C19.6927 28.733 17.8556 28.1565 16.9687 27.5357C17.0912 27.2918 17.1562 27.0231 17.1587 26.7502V26.4715C18.752 27.1125 20.459 27.4228 22.176 27.3837C24.3552 27.3837 26.6105 26.9212 27.9788 26.0407V26.7502ZM27.9788 24.1339C27.9788 24.9447 25.7172 26.1167 22.176 26.1167C20.44 26.1812 18.7153 25.8111 17.1587 25.0398V23.8678C18.752 24.5088 20.459 24.8191 22.176 24.78C24.3552 24.78 26.6105 24.3176 27.9788 23.437V24.1339ZM27.9788 21.5175C27.9788 22.3284 25.7172 23.5004 22.176 23.5004C20.44 23.5652 18.7152 23.195 17.1587 22.4234V21.2325C18.752 21.8735 20.459 22.1838 22.176 22.1447C24.3552 22.1447 26.6105 21.6822 27.9788 20.8017V21.5175ZM22.176 20.884C20.44 20.9489 18.7152 20.5787 17.1587 19.8071V17.989C18.7143 17.2135 20.4389 16.839 22.176 16.8994C25.7172 16.8994 27.9788 18.0777 27.9788 18.8822C27.9788 19.6867 25.7236 20.884 22.176 20.884Z" fill="black"/>
</g>
<defs>
<clipPath id="clip0_123_4690">
<rect width="30" height="30" fill="white"/>
</clipPath>
</defs>
</svg>
