<svg width="20" height="20" viewBox="0 0 20 20" fill="none" xmlns="http://www.w3.org/2000/svg">
<path d="M17.5 10.8332C17.2789 10.8332 17.067 10.921 16.9107 11.0772C16.7544 11.2335 16.6666 11.4455 16.6666 11.6665V14.1665C16.6666 14.8295 16.4032 15.4654 15.9344 15.9343C15.4656 16.4031 14.8297 16.6665 14.1666 16.6665H5.83329C5.17025 16.6665 4.53437 16.4031 4.06553 15.9343C3.59668 15.4654 3.33329 14.8295 3.33329 14.1665V5.83317C3.33329 5.17013 3.59668 4.53424 4.06553 4.0654C4.53437 3.59656 5.17025 3.33317 5.83329 3.33317H9.99996C10.221 3.33317 10.4329 3.24537 10.5892 3.08909C10.7455 2.93281 10.8333 2.72085 10.8333 2.49984C10.8333 2.27882 10.7455 2.06686 10.5892 1.91058C10.4329 1.7543 10.221 1.6665 9.99996 1.6665H5.83329C4.72863 1.66783 3.66959 2.10724 2.88848 2.88835C2.10736 3.66947 1.66795 4.72851 1.66663 5.83317V14.1665C1.66795 15.2712 2.10736 16.3302 2.88848 17.1113C3.66959 17.8924 4.72863 18.3318 5.83329 18.3332H14.1666C15.2713 18.3318 16.3303 17.8924 17.1114 17.1113C17.8926 16.3302 18.332 15.2712 18.3333 14.1665V11.6665C18.3333 11.4455 18.2455 11.2335 18.0892 11.0772C17.9329 10.921 17.721 10.8332 17.5 10.8332Z" fill="#989894"/>
<path d="M5.8417 10.9515C5.86694 11.1272 5.94765 11.2903 6.07207 11.417C6.19648 11.5437 6.35811 11.6273 6.53337 11.6557C6.57744 11.663 6.62204 11.6666 6.6667 11.6665C6.82156 11.6666 6.97338 11.6235 7.10512 11.5421C7.23686 11.4607 7.34332 11.3442 7.41254 11.2057C8.4467 9.13649 11.1984 9.01233 12.5 9.08983V10.8332C12.5001 10.998 12.549 11.159 12.6405 11.296C12.7321 11.433 12.8622 11.5398 13.0145 11.6029C13.1667 11.6659 13.3343 11.6825 13.4959 11.6503C13.6575 11.6182 13.806 11.5388 13.9225 11.4223L18.0892 7.25566C18.1721 7.17281 18.2366 7.07341 18.2785 6.96394C18.3203 6.85447 18.3386 6.73741 18.3322 6.62039C18.3257 6.50336 18.2947 6.38902 18.241 6.28482C18.1874 6.18061 18.1124 6.0889 18.0209 6.01566L13.8542 2.68233C13.7316 2.58418 13.5838 2.52267 13.4278 2.50488C13.2718 2.48709 13.1139 2.51374 12.9724 2.58176C12.8309 2.64978 12.7114 2.7564 12.6279 2.88934C12.5443 3.02228 12.5 3.17613 12.5 3.33316V4.93149C10.1667 4.82233 8.38337 5.37732 7.21587 6.58066C6.69183 7.17129 6.29852 7.86598 6.0617 8.61923C5.82489 9.37247 5.74992 10.1673 5.8417 10.9515Z" fill="#989894"/>
</svg>
