<svg width="30" height="30" viewBox="0 0 30 30" fill="none" xmlns="http://www.w3.org/2000/svg">
<path d="M15.0021 15.5783C19.2878 15.5783 22.7912 12.0749 22.7912 7.78913C22.7912 3.50339 19.2878 0 15.0021 0C10.7163 0 7.21301 3.50339 7.21301 7.78913C7.21301 12.0749 10.7164 15.5783 15.0021 15.5783Z" fill="url(#paint0_linear_123_2133)"/>
<path d="M28.3695 21.8025C28.1654 21.2923 27.8933 20.8161 27.5872 20.374C26.0225 18.061 23.6076 16.5304 20.8865 16.1562C20.5464 16.1223 20.1723 16.1902 19.9001 16.3943C18.4715 17.4488 16.7709 17.993 15.0021 17.993C13.2334 17.993 11.5327 17.4488 10.1042 16.3943C9.83202 16.1902 9.45787 16.0882 9.11776 16.1562C6.39667 16.5304 3.94771 18.061 2.41711 20.374C2.11099 20.8161 1.83885 21.3264 1.63482 21.8025C1.5328 22.0066 1.56678 22.2447 1.6688 22.4488C1.94094 22.925 2.28104 23.4012 2.58716 23.8094C3.06333 24.4557 3.57356 25.0339 4.15181 25.5781C4.62798 26.0542 5.17219 26.4964 5.71646 26.9386C8.4035 28.9454 11.6348 29.9998 14.9682 29.9998C18.3015 29.9998 21.5328 28.9454 24.2198 26.9386C24.7641 26.5305 25.3083 26.0542 25.7845 25.5781C26.3287 25.0339 26.8729 24.4556 27.3491 23.8094C27.6892 23.3672 27.9954 22.925 28.2675 22.4488C28.4375 22.2447 28.4715 22.0066 28.3695 21.8025Z" fill="url(#paint1_linear_123_2133)"/>
<defs>
<linearGradient id="paint0_linear_123_2133" x1="15.0021" y1="0" x2="15.0021" y2="15.5783" gradientUnits="userSpaceOnUse">
<stop stop-color="#DEDEDE"/>
<stop offset="1" stop-color="#FEFEFE"/>
</linearGradient>
<linearGradient id="paint1_linear_123_2133" x1="15" y1="16.1353" x2="15" y2="29.9998" gradientUnits="userSpaceOnUse">
<stop stop-color="#DEDEDE"/>
<stop offset="1" stop-color="#FEFEFE"/>
</linearGradient>
</defs>
</svg>
